<?xml version="1.0" encoding="utf-8" standalone="no"?>
<!DOCTYPE svg PUBLIC "-//W3C//DTD SVG 1.1//EN"
  "http://www.w3.org/Graphics/SVG/1.1/DTD/svg11.dtd">
<svg xmlns:xlink="http://www.w3.org/1999/xlink" width="459.36pt" height="347.76pt" viewBox="0 0 459.36 347.76" xmlns="http://www.w3.org/2000/svg" version="1.1">
 <metadata>
  <rdf:RDF xmlns:dc="http://purl.org/dc/elements/1.1/" xmlns:cc="http://creativecommons.org/ns#" xmlns:rdf="http://www.w3.org/1999/02/22-rdf-syntax-ns#">
   <cc:Work>
    <dc:type rdf:resource="http://purl.org/dc/dcmitype/StillImage"/>
    <dc:date>2026-10-06T17:27:53.963145</dc:date>
    <dc:format>image/svg+xml</dc:format>
    <dc:creator>
     <cc:Agent>
      <dc:title>Matplotlib v3.11.2, https://matplotlib.org/</dc:title>
     </cc:Agent>
    </dc:creator>
   </cc:Work>
  </rdf:RDF>
 </metadata>
 <defs>
  <style type="text/css">*{stroke-linejoin: round; stroke-linecap: butt}</style>
 </defs>
 <g id="figure_1">
  <g id="patch_1">
   <path d="M 0 347.76 
L 459.36 347.76 
L 459.36 0 
L 0 0 
z
" style="fill: #ffffff"/>
  </g>
  <g id="axes_1">
   <g id="patch_2">
    <path d="M 124.486231 137.88 
Q 137.88 137.88 151.273769 137.88 
" clip-path="url(#p4eb1480609)" style="fill: none; stroke: #2b3a4a; stroke-width: 0.9; stroke-linecap: round"/>
    <path d="M 127.686231 139.48 
L 124.486231 137.88 
L 127.686231 136.28 
z
" clip-path="url(#p4eb1480609)" style="fill: #2b3a4a; stroke: #2b3a4a; stroke-width: 0.9; stroke-linecap: round"/>
    <path d="M 148.073769 136.28 
L 151.273769 137.88 
L 148.073769 139.48 
z
" clip-path="url(#p4eb1480609)" style="fill: #2b3a4a; stroke: #2b3a4a; stroke-width: 0.9; stroke-linecap: round"/>
   </g>
   <g id="patch_3">
    <path d="M 308.086231 92.88 
Q 322.38 92.88 336.673769 92.88 
" clip-path="url(#p4eb1480609)" style="fill: none; stroke: #2b3a4a; stroke-width: 0.9; stroke-linecap: round"/>
    <path d="M 311.286231 94.48 
L 308.086231 92.88 
L 311.286231 91.28 
z
" clip-path="url(#p4eb1480609)" style="fill: #2b3a4a; stroke: #2b3a4a; stroke-width: 0.9; stroke-linecap: round"/>
    <path d="M 333.473769 91.28 
L 336.673769 92.88 
L 333.473769 94.48 
z
" clip-path="url(#p4eb1480609)" style="fill: #2b3a4a; stroke: #2b3a4a; stroke-width: 0.9; stroke-linecap: round"/>
   </g>
   <g id="patch_4">
    <path d="M 307.08 182.88 
Q 322.38 182.88 336.673769 182.88 
" clip-path="url(#p4eb1480609)" style="fill: none; stroke: #2b3a4a; stroke-width: 0.9; stroke-linecap: round"/>
    <path d="M 333.473769 181.28 
L 336.673769 182.88 
L 333.473769 184.48 
z
" clip-path="url(#p4eb1480609)" style="fill: #2b3a4a; stroke: #2b3a4a; stroke-width: 0.9; stroke-linecap: round"/>
   </g>
   <g id="patch_5">
    <path d="M 307.08 244.08 
Q 322.38 244.08 336.673769 244.08 
" clip-path="url(#p4eb1480609)" style="fill: none; stroke: #2b3a4a; stroke-width: 0.9; stroke-linecap: round"/>
    <path d="M 333.473769 242.48 
L 336.673769 244.08 
L 333.473769 245.68 
z
" clip-path="url(#p4eb1480609)" style="fill: #2b3a4a; stroke: #2b3a4a; stroke-width: 0.9; stroke-linecap: round"/>
   </g>
   <g id="patch_6">
    <path d="M 193.68 258.48 
Q 193.68 267.48 193.68 275.473769 
" clip-path="url(#p4eb1480609)" style="fill: none; stroke: #2b3a4a; stroke-width: 0.9; stroke-linecap: round"/>
    <path d="M 195.28 272.273769 
L 193.68 275.473769 
L 192.08 272.273769 
z
" clip-path="url(#p4eb1480609)" style="fill: #2b3a4a; stroke: #2b3a4a; stroke-width: 0.9; stroke-linecap: round"/>
   </g>
   <g id="patch_7">
    <path d="M 265.68 276.48 
Q 265.68 267.48 265.68 259.486231 
" clip-path="url(#p4eb1480609)" style="fill: none; stroke: #2b3a4a; stroke-width: 0.9; stroke-linecap: round"/>
    <path d="M 264.08 262.686231 
L 265.68 259.486231 
L 267.28 262.686231 
z
" clip-path="url(#p4eb1480609)" style="fill: #2b3a4a; stroke: #2b3a4a; stroke-width: 0.9; stroke-linecap: round"/>
   </g>
   <g id="patch_8">
    <path d="M 393.48 276.48 
Q 393.48 267.48 393.48 259.486231 
" clip-path="url(#p4eb1480609)" style="fill: none; stroke-dasharray: 3.33,1.44; stroke-dashoffset: 0; stroke: #7f93a8; stroke-width: 0.9; stroke-linecap: round"/>
    <path d="M 391.88 262.686231 
L 393.48 259.486231 
L 395.08 262.686231 
z
" clip-path="url(#p4eb1480609)" style="fill: #7f93a8; stroke-dasharray: 3.33,1.44; stroke-dashoffset: 0; stroke: #7f93a8; stroke-width: 0.9; stroke-linecap: round"/>
   </g>
   <g id="patch_9">
    <path d="M 123.48 308.88 
Q 137.88 308.88 151.273769 308.88 
" clip-path="url(#p4eb1480609)" style="fill: none; stroke-dasharray: 3.33,1.44; stroke-dashoffset: 0; stroke: #2b3a4a; stroke-width: 0.9; stroke-linecap: round"/>
    <path d="M 148.073769 307.28 
L 151.273769 308.88 
L 148.073769 310.48 
z
" clip-path="url(#p4eb1480609)" style="fill: #2b3a4a; stroke-dasharray: 3.33,1.44; stroke-dashoffset: 0; stroke: #2b3a4a; stroke-width: 0.9; stroke-linecap: round"/>
   </g>
   <g id="patch_10">
    <path d="M 12.6 258.48 
L 119.16 258.48 
Q 123.48 258.48 123.48 254.16 
L 123.48 23.4 
Q 123.48 19.08 119.16 19.08 
L 12.6 19.08 
Q 8.28 19.08 8.28 23.4 
L 8.28 254.16 
Q 8.28 258.48 12.6 258.48 
z
" clip-path="url(#p4eb1480609)" style="fill: #f3f4f6; stroke-dasharray: 2.96,1.28; stroke-dashoffset: 0; stroke: #9aa3ad; stroke-width: 0.8; stroke-linejoin: miter"/>
   </g>
   <g id="patch_11">
    <path d="M 18.36 73.08 
L 113.4 73.08 
Q 116.28 73.08 116.28 70.2 
L 116.28 47.88 
Q 116.28 45 113.4 45 
L 18.36 45 
Q 15.48 45 15.48 47.88 
L 15.48 70.2 
Q 15.48 73.08 18.36 73.08 
z
" clip-path="url(#p4eb1480609)" style="fill: #ffffff; stroke: #2b3a4a; stroke-width: 0.8; stroke-linejoin: miter"/>
   </g>
   <g id="patch_12">
    <path d="M 18.36 107.28 
L 113.4 107.28 
Q 116.28 107.28 116.28 104.4 
L 116.28 82.08 
Q 116.28 79.2 113.4 79.2 
L 18.36 79.2 
Q 15.48 79.2 15.48 82.08 
L 15.48 104.4 
Q 15.48 107.28 18.36 107.28 
z
" clip-path="url(#p4eb1480609)" style="fill: #ffffff; stroke: #2b3a4a; stroke-width: 0.8; stroke-linejoin: miter"/>
   </g>
   <g id="patch_13">
    <path d="M 18.36 141.48 
L 113.4 141.48 
Q 116.28 141.48 116.28 138.6 
L 116.28 116.28 
Q 116.28 113.4 113.4 113.4 
L 18.36 113.4 
Q 15.48 113.4 15.48 116.28 
L 15.48 138.6 
Q 15.48 141.48 18.36 141.48 
z
" clip-path="url(#p4eb1480609)" style="fill: #ffffff; stroke: #2b3a4a; stroke-width: 0.8; stroke-linejoin: miter"/>
   </g>
   <g id="patch_14">
    <path d="M 18.36 175.68 
L 113.4 175.68 
Q 116.28 175.68 116.28 172.8 
L 116.28 150.48 
Q 116.28 147.6 113.4 147.6 
L 18.36 147.6 
Q 15.48 147.6 15.48 150.48 
L 15.48 172.8 
Q 15.48 175.68 18.36 175.68 
z
" clip-path="url(#p4eb1480609)" style="fill: #ffffff; stroke: #2b3a4a; stroke-width: 0.8; stroke-linejoin: miter"/>
   </g>
   <g id="patch_15">
    <path d="M 18.36 209.88 
L 113.4 209.88 
Q 116.28 209.88 116.28 207 
L 116.28 184.68 
Q 116.28 181.8 113.4 181.8 
L 18.36 181.8 
Q 15.48 181.8 15.48 184.68 
L 15.48 207 
Q 15.48 209.88 18.36 209.88 
z
" clip-path="url(#p4eb1480609)" style="fill: #ffffff; stroke: #2b3a4a; stroke-width: 0.8; stroke-linejoin: miter"/>
   </g>
   <g id="patch_16">
    <path d="M 18.36 251.28 
L 113.4 251.28 
Q 116.28 251.28 116.28 248.4 
L 116.28 234.36 
Q 116.28 231.48 113.4 231.48 
L 18.36 231.48 
Q 15.48 231.48 15.48 234.36 
L 15.48 248.4 
Q 15.48 251.28 18.36 251.28 
z
" clip-path="url(#p4eb1480609)" style="fill: #e6edf5; stroke: #2b3a4a; stroke-width: 0.8; stroke-linejoin: miter"/>
   </g>
   <g id="patch_17">
    <path d="M 156.6 258.48 
L 302.76 258.48 
Q 307.08 258.48 307.08 254.16 
L 307.08 23.4 
Q 307.08 19.08 302.76 19.08 
L 156.6 19.08 
Q 152.28 19.08 152.28 23.4 
L 152.28 254.16 
Q 152.28 258.48 156.6 258.48 
z
" clip-path="url(#p4eb1480609)" style="fill: #f3f4f6; stroke-dasharray: 2.96,1.28; stroke-dashoffset: 0; stroke: #9aa3ad; stroke-width: 0.8; stroke-linejoin: miter"/>
   </g>
   <g id="patch_18">
    <path d="M 162.36 71.28 
L 297 71.28 
Q 299.88 71.28 299.88 68.4 
L 299.88 51.84 
Q 299.88 48.96 297 48.96 
L 162.36 48.96 
Q 159.48 48.96 159.48 51.84 
L 159.48 68.4 
Q 159.48 71.28 162.36 71.28 
z
" clip-path="url(#p4eb1480609)" style="fill: #e6edf5; stroke: #2b3a4a; stroke-width: 0.8; stroke-linejoin: miter"/>
   </g>
   <g id="patch_19">
    <path d="M 162.36 101.88 
L 225 101.88 
Q 227.88 101.88 227.88 99 
L 227.88 86.76 
Q 227.88 83.88 225 83.88 
L 162.36 83.88 
Q 159.48 83.88 159.48 86.76 
L 159.48 99 
Q 159.48 101.88 162.36 101.88 
z
" clip-path="url(#p4eb1480609)" style="fill: #ffffff; stroke: #2b3a4a; stroke-width: 0.8; stroke-linejoin: miter"/>
   </g>
   <g id="patch_20">
    <path d="M 234.36 101.88 
L 297 101.88 
Q 299.88 101.88 299.88 99 
L 299.88 86.76 
Q 299.88 83.88 297 83.88 
L 234.36 83.88 
Q 231.48 83.88 231.48 86.76 
L 231.48 99 
Q 231.48 101.88 234.36 101.88 
z
" clip-path="url(#p4eb1480609)" style="fill: #ffffff; stroke: #2b3a4a; stroke-width: 0.8; stroke-linejoin: miter"/>
   </g>
   <g id="patch_21">
    <path d="M 162.36 124.2 
L 225 124.2 
Q 227.88 124.2 227.88 121.32 
L 227.88 109.08 
Q 227.88 106.2 225 106.2 
L 162.36 106.2 
Q 159.48 106.2 159.48 109.08 
L 159.48 121.32 
Q 159.48 124.2 162.36 124.2 
z
" clip-path="url(#p4eb1480609)" style="fill: #ffffff; stroke: #2b3a4a; stroke-width: 0.8; stroke-linejoin: miter"/>
   </g>
   <g id="patch_22">
    <path d="M 234.36 124.2 
L 297 124.2 
Q 299.88 124.2 299.88 121.32 
L 299.88 109.08 
Q 299.88 106.2 297 106.2 
L 234.36 106.2 
Q 231.48 106.2 231.48 109.08 
L 231.48 121.32 
Q 231.48 124.2 234.36 124.2 
z
" clip-path="url(#p4eb1480609)" style="fill: #ffffff; stroke: #2b3a4a; stroke-width: 0.8; stroke-linejoin: miter"/>
   </g>
   <g id="patch_23">
    <path d="M 162.36 146.52 
L 225 146.52 
Q 227.88 146.52 227.88 143.64 
L 227.88 131.4 
Q 227.88 128.52 225 128.52 
L 162.36 128.52 
Q 159.48 128.52 159.48 131.4 
L 159.48 143.64 
Q 159.48 146.52 162.36 146.52 
z
" clip-path="url(#p4eb1480609)" style="fill: #ffffff; stroke: #2b3a4a; stroke-width: 0.8; stroke-linejoin: miter"/>
   </g>
   <g id="patch_24">
    <path d="M 234.36 146.52 
L 297 146.52 
Q 299.88 146.52 299.88 143.64 
L 299.88 131.4 
Q 299.88 128.52 297 128.52 
L 234.36 128.52 
Q 231.48 128.52 231.48 131.4 
L 231.48 143.64 
Q 231.48 146.52 234.36 146.52 
z
" clip-path="url(#p4eb1480609)" style="fill: #ffffff; stroke: #2b3a4a; stroke-width: 0.8; stroke-linejoin: miter"/>
   </g>
   <g id="patch_25">
    <path d="M 162.36 168.84 
L 225 168.84 
Q 227.88 168.84 227.88 165.96 
L 227.88 153.72 
Q 227.88 150.84 225 150.84 
L 162.36 150.84 
Q 159.48 150.84 159.48 153.72 
L 159.48 165.96 
Q 159.48 168.84 162.36 168.84 
z
" clip-path="url(#p4eb1480609)" style="fill: #ffffff; stroke: #2b3a4a; stroke-width: 0.8; stroke-linejoin: miter"/>
   </g>
   <g id="patch_26">
    <path d="M 234.36 168.84 
L 297 168.84 
Q 299.88 168.84 299.88 165.96 
L 299.88 153.72 
Q 299.88 150.84 297 150.84 
L 234.36 150.84 
Q 231.48 150.84 231.48 153.72 
L 231.48 165.96 
Q 231.48 168.84 234.36 168.84 
z
" clip-path="url(#p4eb1480609)" style="fill: #ffffff; stroke: #2b3a4a; stroke-width: 0.8; stroke-linejoin: miter"/>
   </g>
   <g id="patch_27">
    <path d="M 162.36 217.08 
L 225 217.08 
Q 227.88 217.08 227.88 214.2 
L 227.88 191.16 
Q 227.88 188.28 225 188.28 
L 162.36 188.28 
Q 159.48 188.28 159.48 191.16 
L 159.48 214.2 
Q 159.48 217.08 162.36 217.08 
z
" clip-path="url(#p4eb1480609)" style="fill: #ffffff; stroke: #2b3a4a; stroke-width: 0.8; stroke-linejoin: miter"/>
   </g>
   <g id="patch_28">
    <path d="M 234.36 217.08 
L 297 217.08 
Q 299.88 217.08 299.88 214.2 
L 299.88 191.16 
Q 299.88 188.28 297 188.28 
L 234.36 188.28 
Q 231.48 188.28 231.48 191.16 
L 231.48 214.2 
Q 231.48 217.08 234.36 217.08 
z
" clip-path="url(#p4eb1480609)" style="fill: #ffffff; stroke: #2b3a4a; stroke-width: 0.8; stroke-linejoin: miter"/>
   </g>
   <g id="patch_29">
    <path d="M 162.36 251.28 
L 225 251.28 
Q 227.88 251.28 227.88 248.4 
L 227.88 225.36 
Q 227.88 222.48 225 222.48 
L 162.36 222.48 
Q 159.48 222.48 159.48 225.36 
L 159.48 248.4 
Q 159.48 251.28 162.36 251.28 
z
" clip-path="url(#p4eb1480609)" style="fill: #ffffff; stroke: #2b3a4a; stroke-width: 0.8; stroke-linejoin: miter"/>
   </g>
   <g id="patch_30">
    <path d="M 234.36 251.28 
L 297 251.28 
Q 299.88 251.28 299.88 248.4 
L 299.88 225.36 
Q 299.88 222.48 297 222.48 
L 234.36 222.48 
Q 231.48 222.48 231.48 225.36 
L 231.48 248.4 
Q 231.48 251.28 234.36 251.28 
z
" clip-path="url(#p4eb1480609)" style="fill: #ffffff; stroke: #2b3a4a; stroke-width: 0.8; stroke-linejoin: miter"/>
   </g>
   <g id="patch_31">
    <path d="M 337.68 137.52 
L 449.28 137.52 
L 449.28 23.04 
L 337.68 23.04 
z
" clip-path="url(#p4eb1480609)" style="fill: #ffffff"/>
   </g>
   <g id="patch_32">
    <path d="M 393.48 141.48 
C 408.278333 141.48 422.472557 141.062749 432.936558 140.320143 
C 443.40056 139.577536 449.28 138.570204 449.28 137.52 
C 449.28 136.469796 443.40056 135.462464 432.936558 134.719857 
C 422.472557 133.977251 408.278333 133.56 393.48 133.56 
C 378.681667 133.56 364.487443 133.977251 354.023442 134.719857 
C 343.55944 135.462464 337.68 136.469796 337.68 137.52 
C 337.68 138.570204 343.55944 139.577536 354.023442 140.320143 
C 364.487443 141.062749 378.681667 141.48 393.48 141.48 
z
" clip-path="url(#p4eb1480609)" style="fill: #ffffff; stroke: #2b3a4a; stroke-width: 0.8; stroke-linejoin: miter"/>
   </g>
   <g id="patch_33">
    <path d="M 340.56 202.68 
L 446.4 202.68 
Q 449.28 202.68 449.28 199.8 
L 449.28 164.16 
Q 449.28 161.28 446.4 161.28 
L 340.56 161.28 
Q 337.68 161.28 337.68 164.16 
L 337.68 199.8 
Q 337.68 202.68 340.56 202.68 
z
" clip-path="url(#p4eb1480609)" style="fill: #ffffff; stroke: #2b3a4a; stroke-width: 0.8; stroke-linejoin: miter"/>
   </g>
   <g id="patch_34">
    <path d="M 340.56 258.48 
L 446.4 258.48 
Q 449.28 258.48 449.28 255.6 
L 449.28 232.56 
Q 449.28 229.68 446.4 229.68 
L 340.56 229.68 
Q 337.68 229.68 337.68 232.56 
L 337.68 255.6 
Q 337.68 258.48 340.56 258.48 
z
" clip-path="url(#p4eb1480609)" style="fill: #ffffff; stroke: #2b3a4a; stroke-width: 0.8; stroke-linejoin: miter"/>
   </g>
   <g id="patch_35">
    <path d="M 156.6 339.48 
L 444.96 339.48 
Q 449.28 339.48 449.28 335.16 
L 449.28 280.8 
Q 449.28 276.48 444.96 276.48 
L 156.6 276.48 
Q 152.28 276.48 152.28 280.8 
L 152.28 335.16 
Q 152.28 339.48 156.6 339.48 
z
" clip-path="url(#p4eb1480609)" style="fill: #ffffff; stroke: #a8402f; stroke-width: 1.1; stroke-linejoin: miter"/>
   </g>
   <g id="patch_36">
    <path d="M 162.36 332.28 
L 223.2 332.28 
Q 226.08 332.28 226.08 329.4 
L 226.08 300.96 
Q 226.08 298.08 223.2 298.08 
L 162.36 298.08 
Q 159.48 298.08 159.48 300.96 
L 159.48 329.4 
Q 159.48 332.28 162.36 332.28 
z
" clip-path="url(#p4eb1480609)" style="fill: #e6edf5; stroke: #7f93a8; stroke-width: 0.8; stroke-linejoin: miter"/>
   </g>
   <g id="patch_37">
    <path d="M 234.36 332.28 
L 295.2 332.28 
Q 298.08 332.28 298.08 329.4 
L 298.08 300.96 
Q 298.08 298.08 295.2 298.08 
L 234.36 298.08 
Q 231.48 298.08 231.48 300.96 
L 231.48 329.4 
Q 231.48 332.28 234.36 332.28 
z
" clip-path="url(#p4eb1480609)" style="fill: #e6edf5; stroke: #7f93a8; stroke-width: 0.8; stroke-linejoin: miter"/>
   </g>
   <g id="patch_38">
    <path d="M 306.36 332.28 
L 367.2 332.28 
Q 370.08 332.28 370.08 329.4 
L 370.08 300.96 
Q 370.08 298.08 367.2 298.08 
L 306.36 298.08 
Q 303.48 298.08 303.48 300.96 
L 303.48 329.4 
Q 303.48 332.28 306.36 332.28 
z
" clip-path="url(#p4eb1480609)" style="fill: #e6edf5; stroke: #7f93a8; stroke-width: 0.8; stroke-linejoin: miter"/>
   </g>
   <g id="patch_39">
    <path d="M 378.36 332.28 
L 439.2 332.28 
Q 442.08 332.28 442.08 329.4 
L 442.08 300.96 
Q 442.08 298.08 439.2 298.08 
L 378.36 298.08 
Q 375.48 298.08 375.48 300.96 
L 375.48 329.4 
Q 375.48 332.28 378.36 332.28 
z
" clip-path="url(#p4eb1480609)" style="fill: #e6edf5; stroke: #7f93a8; stroke-width: 0.8; stroke-linejoin: miter"/>
   </g>
   <g id="patch_40">
    <path d="M 12.6 339.48 
L 119.16 339.48 
Q 123.48 339.48 123.48 335.16 
L 123.48 280.8 
Q 123.48 276.48 119.16 276.48 
L 12.6 276.48 
Q 8.28 276.48 8.28 280.8 
L 8.28 335.16 
Q 8.28 339.48 12.6 339.48 
z
" clip-path="url(#p4eb1480609)" style="fill: #f3f4f6; stroke-dasharray: 2.96,1.28; stroke-dashoffset: 0; stroke: #9aa3ad; stroke-width: 0.8; stroke-linejoin: miter"/>
   </g>
   <g id="patch_41">
    <path d="M 338.04 137.52 
L 448.92 137.52 
L 448.92 135.72 
L 338.04 135.72 
z
" clip-path="url(#p4eb1480609)" style="fill: #ffffff"/>
   </g>
   <g id="text_1">
    <text style="font-weight: 700; font-size: 7px; font-family: 'Arial'; text-anchor: middle; fill: #7f7f7f" x="65.88" y="10.8" transform="rotate(-0 65.88 10.8)">CLIENT TIER</text>
   </g>
   <g id="text_2">
    <text style="font-weight: 700; font-size: 7px; font-family: 'Arial'; text-anchor: middle; fill: #7f7f7f" x="229.68" y="10.8" transform="rotate(-0 229.68 10.8)">APPLICATION TIER</text>
   </g>
   <g id="text_3">
    <text style="font-weight: 700; font-size: 7px; font-family: 'Arial'; text-anchor: middle; fill: #7f7f7f" x="393.48" y="10.8" transform="rotate(-0 393.48 10.8)">DATA TIER</text>
   </g>
   <g id="text_4">
    <text style="font-weight: 700; font-size: 8.2px; font-family: 'Arial'; text-anchor: middle; fill: #1b1b1b" x="65.88" y="28.8" transform="rotate(-0 65.88 28.8)">Expo app</text>
   </g>
   <g id="text_5">
    <text style="font-size: 6.4px; font-family: 'Arial'; text-anchor: middle; fill: #7f7f7f" x="65.88" y="38.88" transform="rotate(-0 65.88 38.88)">React Native, runs in Expo Go</text>
   </g>
   <g id="text_6">
    <text style="font-weight: 700; font-size: 7px; font-family: 'Arial'; text-anchor: start; fill: #1b1b1b" x="20.88" y="56.171523" transform="rotate(-0 20.88 56.171523)">Public and citizen</text>
   </g>
   <g id="text_7">
    <text style="font-size: 6.3px; font-family: 'Arial'; text-anchor: start; fill: #333333" x="20.88" y="66.07031" transform="rotate(-0 20.88 66.07031)">Home, Registry, Report, Track</text>
   </g>
   <g id="text_8">
    <text style="font-weight: 700; font-size: 7px; font-family: 'Arial'; text-anchor: start; fill: #1b1b1b" x="20.88" y="90.371523" transform="rotate(-0 20.88 90.371523)">Supervisor</text>
   </g>
   <g id="text_9">
    <text style="font-size: 6.3px; font-family: 'Arial'; text-anchor: start; fill: #333333" x="20.88" y="100.272155" transform="rotate(-0 20.88 100.272155)">Queue, Field Staff, Track</text>
   </g>
   <g id="text_10">
    <text style="font-weight: 700; font-size: 7px; font-family: 'Arial'; text-anchor: start; fill: #1b1b1b" x="20.88" y="124.571523" transform="rotate(-0 20.88 124.571523)">Field worker</text>
   </g>
   <g id="text_11">
    <text style="font-size: 6.3px; font-family: 'Arial'; text-anchor: start; fill: #333333" x="20.88" y="134.47031" transform="rotate(-0 20.88 134.47031)">My Tasks, Completed</text>
   </g>
   <g id="text_12">
    <text style="font-weight: 700; font-size: 7px; font-family: 'Arial'; text-anchor: start; fill: #1b1b1b" x="20.88" y="158.771523" transform="rotate(-0 20.88 158.771523)">Admin</text>
   </g>
   <g id="text_13">
    <text style="font-size: 6.3px; font-family: 'Arial'; text-anchor: start; fill: #333333" x="20.88" y="168.670371" transform="rotate(-0 20.88 168.670371)">Stats, Complaints, People</text>
   </g>
   <g id="text_14">
    <text style="font-weight: 700; font-size: 7px; font-family: 'Arial'; text-anchor: start; fill: #1b1b1b" x="20.88" y="192.971523" transform="rotate(-0 20.88 192.971523)">Researcher</text>
   </g>
   <g id="text_15">
    <text style="font-size: 6.3px; font-family: 'Arial'; text-anchor: start; fill: #333333" x="20.88" y="202.87031" transform="rotate(-0 20.88 202.87031)">Insights, Export</text>
   </g>
   <g id="text_16">
    <text style="font-size: 6.4px; font-family: 'Arial'; text-anchor: middle; fill: #1b1b1b" x="65.88" y="243.2565" transform="rotate(-0 65.88 243.2565)">Axios client, JWT in SecureStore</text>
   </g>
   <g id="text_17">
    <text style="font-weight: 700; font-size: 8.2px; font-family: 'Arial'; text-anchor: middle; fill: #1b1b1b" x="229.68" y="28.8" transform="rotate(-0 229.68 28.8)">Express REST API</text>
   </g>
   <g id="text_18">
    <text style="font-size: 6.4px; font-family: 'Arial'; text-anchor: middle; fill: #7f7f7f" x="229.68" y="38.88" transform="rotate(-0 229.68 38.88)">Node.js, Mongoose, served under /api</text>
   </g>
   <g id="text_19">
    <text style="font-size: 6.4px; font-family: 'Arial'; text-anchor: middle; fill: #1b1b1b" x="229.68" y="61.776" transform="rotate(-0 229.68 61.776)">JWT and role check  |  Zod  |  Multer uploads</text>
   </g>
   <g id="text_20">
    <text style="font-size: 6.8px; font-family: 'Arial'; text-anchor: middle; fill: #1b1b1b" x="193.68" y="95.313656" transform="rotate(-0 193.68 95.313656)">/auth</text>
   </g>
   <g id="text_21">
    <text style="font-size: 6.8px; font-family: 'Arial'; text-anchor: middle; fill: #1b1b1b" x="265.68" y="94.679344" transform="rotate(-0 265.68 94.679344)">/complaints</text>
   </g>
   <g id="text_22">
    <text style="font-size: 6.8px; font-family: 'Arial'; text-anchor: middle; fill: #1b1b1b" x="193.68" y="116.999344" transform="rotate(-0 193.68 116.999344)">/public</text>
   </g>
   <g id="text_23">
    <text style="font-size: 6.8px; font-family: 'Arial'; text-anchor: middle; fill: #1b1b1b" x="265.68" y="116.999344" transform="rotate(-0 265.68 116.999344)">/supervisor</text>
   </g>
   <g id="text_24">
    <text style="font-size: 6.8px; font-family: 'Arial'; text-anchor: middle; fill: #1b1b1b" x="193.68" y="139.953656" transform="rotate(-0 193.68 139.953656)">/field</text>
   </g>
   <g id="text_25">
    <text style="font-size: 6.8px; font-family: 'Arial'; text-anchor: middle; fill: #1b1b1b" x="265.68" y="139.953656" transform="rotate(-0 265.68 139.953656)">/admin</text>
   </g>
   <g id="text_26">
    <text style="font-size: 6.8px; font-family: 'Arial'; text-anchor: middle; fill: #1b1b1b" x="193.68" y="162.273656" transform="rotate(-0 193.68 162.273656)">/research</text>
   </g>
   <g id="text_27">
    <text style="font-size: 6.8px; font-family: 'Arial'; text-anchor: middle; fill: #1b1b1b" x="265.68" y="161.5995" transform="rotate(-0 265.68 161.5995)">/uploads (static)</text>
   </g>
   <g id="text_28">
    <text style="font-weight: 700; font-size: 6.8px; font-family: 'Arial'; text-anchor: middle; fill: #1b1b1b" x="193.68" y="200.119699" transform="rotate(-0 193.68 200.119699)">Workflow engine</text>
   </g>
   <g id="text_29">
    <text style="font-size: 5.9px; font-family: 'Arial'; text-anchor: middle; fill: #333333" x="193.68" y="209.606798" transform="rotate(-0 193.68 209.606798)">stages, ward rules</text>
   </g>
   <g id="text_30">
    <text style="font-weight: 700; font-size: 6.8px; font-family: 'Arial'; text-anchor: middle; fill: #1b1b1b" x="265.68" y="200.119766" transform="rotate(-0 265.68 200.119766)">Email service</text>
   </g>
   <g id="text_31">
    <text style="font-size: 5.9px; font-family: 'Arial'; text-anchor: middle; fill: #333333" x="265.68" y="209.608526" transform="rotate(-0 265.68 209.608526)">OTP, status, receipts</text>
   </g>
   <g id="text_32">
    <text style="font-weight: 700; font-size: 6.8px; font-family: 'Arial'; text-anchor: middle; fill: #1b1b1b" x="193.68" y="234.319766" transform="rotate(-0 193.68 234.319766)">PDF receipts</text>
   </g>
   <g id="text_33">
    <text style="font-size: 5.9px; font-family: 'Arial'; text-anchor: middle; fill: #333333" x="193.68" y="243.806855" transform="rotate(-0 193.68 243.806855)">PDFKit</text>
   </g>
   <g id="text_34">
    <text style="font-weight: 700; font-size: 6.8px; font-family: 'Arial'; text-anchor: middle; fill: #1b1b1b" x="265.68" y="234.319699" transform="rotate(-0 265.68 234.319699)">Expiry job</text>
   </g>
   <g id="text_35">
    <text style="font-size: 5.9px; font-family: 'Arial'; text-anchor: middle; fill: #333333" x="265.68" y="243.806855" transform="rotate(-0 265.68 243.806855)">researcher notices, 6 h</text>
   </g>
   <g id="text_36">
    <text style="font-style: italic; font-size: 6.3px; font-family: 'Arial'; text-anchor: middle; fill: #7f7f7f" x="229.68" y="181.08" transform="rotate(-0 229.68 181.08)">services</text>
   </g>
   <g id="line2d_1">
    <path d="M 337.68 137.52 
L 337.68 23.04 
" clip-path="url(#p4eb1480609)" style="fill: none; stroke: #2b3a4a; stroke-width: 0.8; stroke-linecap: square"/>
   </g>
   <g id="line2d_2">
    <path d="M 449.28 137.52 
L 449.28 23.04 
" clip-path="url(#p4eb1480609)" style="fill: none; stroke: #2b3a4a; stroke-width: 0.8; stroke-linecap: square"/>
   </g>
   <g id="text_37">
    <text style="font-weight: 700; font-size: 7.4px; font-family: 'Arial'; text-anchor: middle; fill: #1b1b1b" x="393.48" y="175.794967" transform="rotate(-0 393.48 175.794967)">Image storage</text>
   </g>
   <g id="text_38">
    <text style="font-size: 6.2px; font-family: 'Arial'; fill: #1b1b1b" transform="translate(355.223578 187.230457)">uploads/: original, proof and</text>
    <text style="font-size: 6.2px; font-family: 'Arial'; fill: #1b1b1b" transform="translate(369.522328 193.978527)">annotated photos</text>
   </g>
   <g id="text_39">
    <text style="font-weight: 700; font-size: 7.4px; font-family: 'Arial'; text-anchor: middle; fill: #1b1b1b" x="393.48" y="241.675039" transform="rotate(-0 393.48 241.675039)">SMTP server</text>
   </g>
   <g id="text_40">
    <text style="font-size: 6px; font-family: 'Arial'; text-anchor: middle; fill: #1b1b1b" x="393.48" y="252.112676" transform="rotate(-0 393.48 252.112676)">Nodemailer (Ethereal in development)</text>
   </g>
   <g id="text_41">
    <text style="font-weight: 700; font-size: 8px; font-family: 'Arial'; text-anchor: start; fill: #1b1b1b" x="159.48" y="288.630313" transform="rotate(-0 159.48 288.630313)">AI inference service</text>
   </g>
   <g id="text_42">
    <text style="font-size: 6.4px; font-family: 'Arial'; text-anchor: start; fill: #7f7f7f" x="238.68" y="288.218" transform="rotate(-0 238.68 288.218)">Python, FastAPI, Ultralytics YOLOv8</text>
   </g>
   <g id="text_43">
    <text style="font-weight: 700; font-size: 5.7px; font-family: 'Arial'; text-anchor: middle; fill: #1b1b1b" x="192.78" y="312.875042" transform="rotate(-0 192.78 312.875042)">pothole_road_damage</text>
   </g>
   <g id="text_44">
    <text style="font-size: 5.9px; font-family: 'Arial'; text-anchor: middle; fill: #1b1b1b" x="192.78" y="324.086798" transform="rotate(-0 192.78 324.086798)">segmentation model</text>
   </g>
   <g id="text_45">
    <text style="font-weight: 700; font-size: 5.7px; font-family: 'Arial'; text-anchor: middle; fill: #1b1b1b" x="264.78" y="312.875042" transform="rotate(-0 264.78 312.875042)">garbage_litter</text>
   </g>
   <g id="text_46">
    <text style="font-size: 5.9px; font-family: 'Arial'; text-anchor: middle; fill: #1b1b1b" x="264.78" y="324.086798" transform="rotate(-0 264.78 324.086798)">segmentation model</text>
   </g>
   <g id="text_47">
    <text style="font-weight: 700; font-size: 5.7px; font-family: 'Arial'; text-anchor: middle; fill: #1b1b1b" x="336.78" y="312.875098" transform="rotate(-0 336.78 312.875098)">open_manhole</text>
   </g>
   <g id="text_48">
    <text style="font-size: 5.9px; font-family: 'Arial'; text-anchor: middle; fill: #1b1b1b" x="336.78" y="324.086855" transform="rotate(-0 336.78 324.086855)">detection model</text>
   </g>
   <g id="text_49">
    <text style="font-weight: 700; font-size: 5.7px; font-family: 'Arial'; text-anchor: middle; fill: #1b1b1b" x="408.78" y="312.875042" transform="rotate(-0 408.78 312.875042)">graffiti</text>
   </g>
   <g id="text_50">
    <text style="font-size: 5.9px; font-family: 'Arial'; text-anchor: middle; fill: #1b1b1b" x="408.78" y="324.086855" transform="rotate(-0 408.78 324.086855)">detection model</text>
   </g>
   <g id="text_51">
    <text style="font-weight: 700; font-size: 7.4px; font-family: 'Arial'; text-anchor: middle; fill: #1b1b1b" x="65.88" y="292.68" transform="rotate(-0 65.88 292.68)">Training (offline)</text>
   </g>
   <g id="text_52">
    <text style="font-size: 6.2px; font-family: 'Arial'; fill: #1b1b1b" transform="translate(29.001141 308.282348)">one notebook per category</text>
    <text style="font-size: 6.2px; font-family: 'Arial'; fill: #1b1b1b" transform="translate(19.822719 316.099797)">RDD2022, TACO, Road Hazards,</text>
    <text style="font-size: 6.2px; font-family: 'Arial'; fill: #1b1b1b" transform="translate(42.163547 324.06498)">STORM datasets</text>
   </g>
   <g id="text_53">
    <text style="font-size: 6px; font-family: 'Arial'; fill: #1b1b1b" transform="translate(128.046562 121.528828)">HTTPS</text>
    <text style="font-size: 6px; font-family: 'Arial'; fill: #1b1b1b" transform="translate(129.878906 128.287734)">JSON</text>
   </g>
   <g id="text_54">
    <text style="font-size: 6px; font-family: 'Arial'; text-anchor: middle; fill: #1b1b1b" x="322.38" y="87.195938" transform="rotate(-0 322.38 87.195938)">Mongoose</text>
   </g>
   <g id="text_55">
    <text style="font-size: 6px; font-family: 'Arial'; text-anchor: middle; fill: #1b1b1b" x="322.38" y="178.90875" transform="rotate(-0 322.38 178.90875)">files</text>
   </g>
   <g id="text_56">
    <text style="font-size: 6px; font-family: 'Arial'; text-anchor: middle; fill: #1b1b1b" x="322.38" y="240.107344" transform="rotate(-0 322.38 240.107344)">SMTP</text>
   </g>
   <g id="text_57">
    <text style="font-size: 6px; font-family: 'Arial'; text-anchor: start; fill: #1b1b1b" x="197.28" y="269.034375" transform="rotate(-0 197.28 269.034375)">POST /predict/{category}</text>
   </g>
   <g id="text_58">
    <text style="font-size: 6px; font-family: 'Arial'; text-anchor: start; fill: #1b1b1b" x="269.28" y="269.032734" transform="rotate(-0 269.28 269.032734)">detections, confidence</text>
   </g>
   <g id="text_59">
    <text style="font-size: 6px; font-family: 'Arial'; text-anchor: start; fill: #555555" x="397.08" y="269.032676" transform="rotate(-0 397.08 269.032676)">annotated images</text>
   </g>
   <g id="text_60">
    <text style="font-size: 6px; font-family: 'Arial'; text-anchor: middle; fill: #1b1b1b" x="137.88" y="304.275937" transform="rotate(-0 137.88 304.275937)">weights</text>
   </g>
   <g id="patch_42">
    <path d="M 393.48 27 
C 408.278333 27 422.472557 26.582749 432.936558 25.840143 
C 443.40056 25.097536 449.28 24.090204 449.28 23.04 
C 449.28 21.989796 443.40056 20.982464 432.936558 20.239857 
C 422.472557 19.497251 408.278333 19.08 393.48 19.08 
C 378.681667 19.08 364.487443 19.497251 354.023442 20.239857 
C 343.55944 20.982464 337.68 21.989796 337.68 23.04 
C 337.68 24.090204 343.55944 25.097536 354.023442 25.840143 
C 364.487443 26.582749 378.681667 27 393.48 27 
z
" clip-path="url(#p4eb1480609)" style="fill: #dfe8f1; stroke: #2b3a4a; stroke-width: 0.8; stroke-linejoin: miter"/>
   </g>
   <g id="text_61">
    <text style="font-weight: 700; font-size: 7.6px; font-family: 'Arial'; text-anchor: middle; fill: #1b1b1b" x="393.48" y="35.446723" transform="rotate(-0 393.48 35.446723)">MongoDB</text>
   </g>
   <g id="text_62">
    <text style="font-size: 6.4px; font-family: 'Arial'; fill: #1b1b1b" transform="translate(342 47.683562)">users</text>
    <text style="font-size: 6.4px; font-family: 'Arial'; fill: #1b1b1b" transform="translate(342 55.486688)">complaints</text>
    <text style="font-size: 6.4px; font-family: 'Arial'; fill: #1b1b1b" transform="translate(342 63.257313)">  statusHistory, aiAnalysis</text>
    <text style="font-size: 6.4px; font-family: 'Arial'; fill: #1b1b1b" transform="translate(342 71.104438)">otps (TTL index)</text>
    <text style="font-size: 6.4px; font-family: 'Arial'; fill: #1b1b1b" transform="translate(342 78.911063)">leaverequests</text>
    <text style="font-size: 6.4px; font-family: 'Arial'; fill: #1b1b1b" transform="translate(342 87.317687)">attendancerecords</text>
    <text style="font-size: 6.4px; font-family: 'Arial'; fill: #1b1b1b" transform="translate(342 94.527312)">researchapplications</text>
    <text style="font-size: 6.4px; font-family: 'Arial'; fill: #1b1b1b" transform="translate(342 102.297937)">researchaccesslogs</text>
   </g>
  </g>
 </g>
 <defs>
  <clipPath id="p4eb1480609">
   <rect x="2.88" y="2.88" width="453.6" height="342"/>
  </clipPath>
 </defs>
</svg>
